<svg width="320" height="172" viewBox="0 0 320 172" fill="none" xmlns="http://www.w3.org/2000/svg">
<path d="M70.04 61.2C119.72 61.2 139.16 84.24 139.16 114C139.16 144 116.6 171.36 65.96 171.36C42.68 171.36 17.96 165.6 0.92 154.8L17.96 119.04C31.64 128.16 48.44 132.96 64.52 132.96C80.6 132.96 91.4 126.48 91.4 115.2C91.4 104.88 84.44 98.16 58.76 98.16H13.16L21.56 -1.14441e-05H128.6V36.72H60.92L58.76 61.2H70.04ZM319.1 168H264.38L229.58 115.92L195.26 168H141.02L202.22 83.04L143.66 -1.14441e-05H197.18L230.78 48.48L263.9 -1.14441e-05H315.26L256.7 81.12L319.1 168Z" fill="url(#paint0_linear_1373_10569)"/>
<defs>
<linearGradient id="paint0_linear_1373_10569" x1="119.765" y1="283.795" x2="200.556" y2="-218.928" gradientUnits="userSpaceOnUse">
<stop stop-color="#AFAFFF"/>
<stop offset="0.34375" stop-color="#FF8FB8"/>
<stop offset="0.723958" stop-color="#FFBB9B"/>
</linearGradient>
</defs>
</svg>
