<svg width="22" height="22" viewBox="0 0 22 22" fill="none" xmlns="http://www.w3.org/2000/svg">
<path fill-rule="evenodd" clip-rule="evenodd" d="M21.5988 11.108C21.5988 17.0573 16.776 21.88 10.8267 21.88C4.87749 21.88 0.0546875 17.0573 0.0546875 11.108C0.0546875 5.15874 4.87749 0.335938 10.8267 0.335938C16.776 0.335938 21.5988 5.15874 21.5988 11.108Z" fill="#E84142"/>
<path fill-rule="evenodd" clip-rule="evenodd" d="M7.30876 15.8349H5.003C4.51849 15.8349 4.27917 15.8349 4.13324 15.7415C3.97562 15.6393 3.87931 15.47 3.86764 15.2832C3.85887 15.1111 3.97855 14.9009 4.21788 14.4806L9.91107 4.44554C10.1533 4.01941 10.2759 3.80634 10.4306 3.72754C10.597 3.6429 10.7954 3.6429 10.9618 3.72754C11.1165 3.80634 11.2391 4.01941 11.4813 4.44554L12.6517 6.48862L12.6577 6.49904C12.9193 6.9562 13.052 7.18802 13.11 7.43134C13.1742 7.69694 13.1742 7.97713 13.11 8.24274C13.0516 8.4879 12.9202 8.72141 12.6546 9.18548L9.66414 14.4718L9.6564 14.4854C9.39303 14.9463 9.25955 15.1799 9.07457 15.3561C8.87318 15.5488 8.63092 15.6888 8.36532 15.7678C8.12307 15.8349 7.85164 15.8349 7.30876 15.8349Z" fill="white"/>
<path fill-rule="evenodd" clip-rule="evenodd" d="M13.1338 15.8331H16.4377C16.9251 15.8331 17.1703 15.8331 17.3164 15.7369C17.4739 15.6347 17.5731 15.4624 17.582 15.2757C17.5904 15.1091 17.4733 14.9071 17.2439 14.5112C17.236 14.4978 17.2281 14.484 17.22 14.4701L15.5651 11.639L15.5462 11.6071C15.3137 11.2138 15.1963 11.0152 15.0455 10.9385C14.8793 10.8538 14.6836 10.8538 14.5173 10.9385C14.3655 11.0173 14.2429 11.2245 14.0007 11.6419L12.3516 14.473L12.346 14.4828C12.1046 14.8995 11.9839 15.1077 11.9926 15.2786C12.0043 15.4654 12.1006 15.6375 12.2582 15.7397C12.4012 15.8331 12.6464 15.8331 13.1338 15.8331Z" fill="white"/>
</svg>
