<svg width="146" height="226" viewBox="0 0 146 226" fill="none" xmlns="http://www.w3.org/2000/svg">
<path d="M145.24 146.12C145.24 171.56 127 193.64 89.56 199.16V225.8H60.76V200.12C36.76 198.44 13.96 191.48 0.0400004 181.88L15.64 146.84C30.52 156.68 51.64 163.4 71.08 163.4C90.76 163.4 98.44 157.88 98.44 149.72C98.44 123.08 2.92 142.52 2.92 80.12C2.92 53.72 21.88 31.4 60.76 26.6V0.199987H89.56V26.12C107.32 27.56 124.84 32.36 138.28 40.28L123.64 75.56C107.56 66.92 91.72 62.6 77.08 62.6C57.16 62.6 49.96 69.32 49.96 77.72C49.96 103.4 145.24 84.2 145.24 146.12Z" fill="url(#paint0_linear_1373_10167)"/>
<defs>
<linearGradient id="paint0_linear_1373_10167" x1="53.8732" y1="312.795" x2="207.214" y2="-152.362" gradientUnits="userSpaceOnUse">
<stop stop-color="#AFAFFF"/>
<stop offset="0.34375" stop-color="#FF8FB8"/>
<stop offset="0.723958" stop-color="#FFBB9B"/>
</linearGradient>
</defs>
</svg>
