<svg width="62" height="62" viewBox="0 0 62 62" fill="none" xmlns="http://www.w3.org/2000/svg">
<path d="M25.8304 42.2789C25.1478 42.2789 24.6464 42.1296 24.3264 41.8309C24.0278 41.5109 23.8784 41.0523 23.8784 40.4549C23.8784 40.0923 23.9744 39.7403 24.1664 39.3989C24.3584 39.0576 24.6358 38.6949 24.9984 38.3109L31.4304 31.4629C32.4118 30.4389 33.1158 29.5109 33.5424 28.6789C33.9691 27.8256 34.1824 26.9723 34.1824 26.1189C34.1824 25.0523 33.8411 24.2416 33.1584 23.6869C32.4971 23.1323 31.5264 22.8549 30.2464 22.8549C29.5211 22.8549 28.7958 22.9616 28.0704 23.1749C27.3451 23.3669 26.6091 23.7083 25.8624 24.1989C25.4784 24.4549 25.1158 24.5616 24.7744 24.5189C24.4544 24.4763 24.1664 24.3376 23.9104 24.1029C23.6758 23.8683 23.5158 23.5803 23.4304 23.2389C23.3451 22.8976 23.3558 22.5563 23.4624 22.2149C23.5904 21.8523 23.8464 21.5429 24.2304 21.2869C25.1478 20.6683 26.1718 20.1989 27.3024 19.8789C28.4544 19.5589 29.6064 19.3989 30.7584 19.3989C32.3798 19.3989 33.7451 19.6443 34.8544 20.1349C35.9638 20.6256 36.8064 21.3403 37.3824 22.2789C37.9584 23.2176 38.2464 24.3589 38.2464 25.7029C38.2464 26.5989 38.0971 27.4736 37.7984 28.3269C37.5211 29.1803 37.0838 30.0443 36.4864 30.9189C35.9104 31.7936 35.1531 32.7216 34.2144 33.7029L28.1984 39.9749V38.8869H37.6064C38.1824 38.8869 38.6198 39.0256 38.9184 39.3029C39.2171 39.5803 39.3664 39.9963 39.3664 40.5509C39.3664 41.1056 39.2171 41.5323 38.9184 41.8309C38.6198 42.1296 38.1824 42.2789 37.6064 42.2789H25.8304Z" fill="url(#paint0_linear_781_15)"/>
<circle cx="31" cy="31" r="23.75" stroke="url(#paint1_linear_781_15)" stroke-width="2.5"/>
<defs>
<linearGradient id="paint0_linear_781_15" x1="30.2648" y1="46.6237" x2="40.5915" y2="9.32458" gradientUnits="userSpaceOnUse">
<stop stop-color="#AFAFFF"/>
<stop offset="0.34375" stop-color="#FF8FB8"/>
<stop offset="0.723958" stop-color="#FFBB9B"/>
</linearGradient>
<linearGradient id="paint1_linear_781_15" x1="24.8525" y1="76.082" x2="61.7377" y2="-62.4426" gradientUnits="userSpaceOnUse">
<stop offset="0.0176677" stop-color="#C0BEFF"/>
<stop offset="0.251887" stop-color="#FFCEE0"/>
<stop offset="0.505278" stop-color="#FFDECC"/>
</linearGradient>
</defs>
</svg>
