<svg width="62" height="62" viewBox="0 0 62 62" fill="none" xmlns="http://www.w3.org/2000/svg">
<path d="M25.5662 42.2789C25.0115 42.2789 24.5742 42.1296 24.2542 41.8309C23.9555 41.5109 23.8062 41.0842 23.8062 40.5509C23.8062 39.9962 23.9555 39.5802 24.2542 39.3029C24.5742 39.0256 25.0115 38.8869 25.5662 38.8869H29.1502V23.1749H31.1342L26.4302 26.0229C26.0248 26.2576 25.6408 26.3536 25.2782 26.3109C24.9368 26.2469 24.6382 26.0976 24.3822 25.8629C24.1475 25.6069 23.9875 25.3082 23.9022 24.9669C23.8168 24.6256 23.8382 24.2842 23.9662 23.9429C24.1155 23.5802 24.3928 23.2816 24.7982 23.0469L29.2142 20.3909C29.6408 20.1349 30.0675 19.9216 30.4942 19.7509C30.9208 19.5589 31.3155 19.4629 31.6782 19.4629C32.1262 19.4629 32.4995 19.5909 32.7982 19.8469C33.0968 20.0816 33.2462 20.4762 33.2462 21.0309V38.8869H36.5102C37.0648 38.8869 37.4915 39.0256 37.7902 39.3029C38.1102 39.5802 38.2702 39.9962 38.2702 40.5509C38.2702 41.1056 38.1102 41.5322 37.7902 41.8309C37.4915 42.1296 37.0648 42.2789 36.5102 42.2789H25.5662Z" fill="url(#paint0_linear_640_1124)"/>
<circle cx="31" cy="31" r="23.75" stroke="url(#paint1_linear_640_1124)" stroke-width="2.5"/>
<defs>
<linearGradient id="paint0_linear_640_1124" x1="29.2648" y1="46.6237" x2="39.5915" y2="9.32458" gradientUnits="userSpaceOnUse">
<stop stop-color="#AFAFFF"/>
<stop offset="0.34375" stop-color="#FF8FB8"/>
<stop offset="0.723958" stop-color="#FFBB9B"/>
</linearGradient>
<linearGradient id="paint1_linear_640_1124" x1="24.8525" y1="76.082" x2="61.7377" y2="-62.4426" gradientUnits="userSpaceOnUse">
<stop offset="0.0176677" stop-color="#C0BEFF"/>
<stop offset="0.251887" stop-color="#FFCEE0"/>
<stop offset="0.505278" stop-color="#FFDECC"/>
</linearGradient>
</defs>
</svg>
