<svg width="62" height="61" viewBox="0 0 62 61" fill="none" xmlns="http://www.w3.org/2000/svg">
<path d="M30.7264 41.3481C29.5744 41.3481 28.3798 41.2031 27.1424 40.9132C25.9051 40.6233 24.8278 40.1885 23.9104 39.6087C23.4838 39.3395 23.1958 39.0289 23.0464 38.6768C22.8971 38.3248 22.8544 37.9935 22.9184 37.6829C23.0038 37.3516 23.1638 37.072 23.3984 36.8443C23.6544 36.6165 23.9638 36.4819 24.3264 36.4405C24.7104 36.3991 25.1264 36.4922 25.5744 36.72C26.4491 37.1756 27.2918 37.5069 28.1024 37.714C28.9131 37.9003 29.7451 37.9935 30.5984 37.9935C31.5371 37.9935 32.3264 37.8693 32.9664 37.6208C33.6064 37.3723 34.0864 36.9996 34.4064 36.5026C34.7478 36.0056 34.9184 35.4051 34.9184 34.7011C34.9184 33.6657 34.5558 32.8996 33.8304 32.4026C33.1264 31.8849 32.0918 31.6261 30.7264 31.6261H28.6784C28.0811 31.6261 27.6224 31.4811 27.3024 31.1912C27.0038 30.9013 26.8544 30.4975 26.8544 29.9799C26.8544 29.4622 27.0038 29.0584 27.3024 28.7685C27.6224 28.4786 28.0811 28.3337 28.6784 28.3337H30.3424C31.1531 28.3337 31.8464 28.2094 32.4224 27.9609C32.9984 27.6917 33.4464 27.319 33.7664 26.8427C34.0864 26.3665 34.2464 25.7867 34.2464 25.1034C34.2464 24.1508 33.9158 23.4261 33.2544 22.9291C32.6144 22.4321 31.6758 22.1836 30.4384 22.1836C29.6491 22.1836 28.9024 22.2768 28.1984 22.4632C27.5158 22.6289 26.7584 22.9498 25.9264 23.4261C25.5424 23.6539 25.1691 23.747 24.8064 23.7056C24.4651 23.6642 24.1771 23.5296 23.9424 23.3018C23.7078 23.0741 23.5478 22.8049 23.4624 22.4943C23.3771 22.1629 23.3984 21.8316 23.5264 21.5003C23.6544 21.1483 23.9211 20.848 24.3264 20.5996C25.2438 20.0198 26.2571 19.5849 27.3664 19.295C28.4758 18.9844 29.6171 18.8291 30.7904 18.8291C32.3478 18.8291 33.6811 19.0672 34.7904 19.5435C35.8998 19.9991 36.7424 20.6617 37.3184 21.5314C37.9158 22.3804 38.2144 23.4157 38.2144 24.6374C38.2144 25.5071 38.0438 26.3044 37.7024 27.0291C37.3611 27.7331 36.8811 28.3337 36.2624 28.8306C35.6438 29.3276 34.8971 29.6796 34.0224 29.8867V29.514C35.5584 29.7624 36.7531 30.3837 37.6064 31.3776C38.4598 32.3508 38.8864 33.5725 38.8864 35.0428C38.8864 36.3266 38.5558 37.4448 37.8944 38.3973C37.2331 39.3498 36.2944 40.0849 35.0784 40.6026C33.8624 41.0996 32.4118 41.3481 30.7264 41.3481Z" fill="url(#paint0_linear_781_197)"/>
<path d="M54.75 30.0898C54.75 42.7665 44.1521 53.106 31 53.106C17.8479 53.106 7.25 42.7665 7.25 30.0898C7.25 17.4132 17.8479 7.07373 31 7.07373C44.1521 7.07373 54.75 17.4132 54.75 30.0898Z" stroke="url(#paint1_linear_781_197)" stroke-width="2.5"/>
<defs>
<linearGradient id="paint0_linear_781_197" x1="30.2648" y1="45.2547" x2="40.0344" y2="8.90076" gradientUnits="userSpaceOnUse">
<stop stop-color="#AFAFFF"/>
<stop offset="0.34375" stop-color="#FF8FB8"/>
<stop offset="0.723958" stop-color="#FFBB9B"/>
</linearGradient>
<linearGradient id="paint1_linear_781_197" x1="24.8525" y1="73.8484" x2="59.7376" y2="-61.1267" gradientUnits="userSpaceOnUse">
<stop offset="0.0176677" stop-color="#C0BEFF"/>
<stop offset="0.251887" stop-color="#FFCEE0"/>
<stop offset="0.505278" stop-color="#FFDECC"/>
</linearGradient>
</defs>
</svg>
