<svg width="291" height="291" viewBox="0 0 291 291" fill="none" xmlns="http://www.w3.org/2000/svg">
<circle cx="145.5" cy="145.5" r="143" fill="url(#paint0_linear_1501_9251)" stroke="url(#paint1_linear_1501_9251)" stroke-width="5"/>
<path d="M111.37 115V94.552H103.306V89.8H125.266V94.552H117.202V115H111.37ZM145.684 89.8H151.516V115H145.684V104.668H134.236V115H128.404V89.8H134.236V99.736H145.684V89.8ZM163.274 110.32H176.99V115H157.478V89.8H176.522V94.48H163.274V99.952H174.974V104.488H163.274V110.32ZM96.6557 159H91.1837L91.1477 143.88L83.7317 156.336H81.1037L73.7237 144.204V159H68.2517V133.8H73.0757L82.5077 149.46L91.7957 133.8H96.5837L96.6557 159ZM121.462 159L119.23 153.6H107.53L105.298 159H99.3225L110.554 133.8H116.314L127.582 159H121.462ZM109.402 149.172H117.394L113.398 139.524L109.402 149.172ZM152.517 159H146.253L141.393 151.98H141.105H136.029V159H130.197V133.8H141.105C147.837 133.8 152.049 137.292 152.049 142.944C152.049 146.724 150.141 149.496 146.865 150.9L152.517 159ZM146.145 142.944C146.145 140.172 144.345 138.552 140.781 138.552H136.029V147.336H140.781C144.345 147.336 146.145 145.68 146.145 142.944ZM173.914 159L165.85 149.1L162.466 152.628V159H156.67V133.8H162.466V145.572L173.626 133.8H180.106L169.666 145.032L180.718 159H173.914ZM189.114 154.32H202.83V159H183.318V133.8H202.362V138.48H189.114V143.952H200.814V148.488H189.114V154.32ZM212.69 159V138.552H204.626V133.8H226.586V138.552H218.522V159H212.69ZM107.783 203H102.311L102.275 187.88L94.8586 200.336H92.2306L84.8506 188.204V203H79.3786V177.8H84.2026L93.6346 193.46L102.923 177.8H107.711L107.783 203ZM132.589 203L130.357 197.6H118.657L116.425 203H110.449L121.681 177.8H127.441L138.709 203H132.589ZM120.529 193.172H128.521L124.525 183.524L120.529 193.172ZM158.568 203L150.504 193.1L147.12 196.628V203H141.324V177.8H147.12V189.572L158.28 177.8H164.76L154.32 189.032L165.372 203H158.568ZM173.768 198.32H187.484V203H167.972V177.8H187.016V182.48H173.768V187.952H185.468V192.488H173.768V198.32ZM214.445 203H208.181L203.321 195.98H203.033H197.957V203H192.125V177.8H203.033C209.765 177.8 213.977 181.292 213.977 186.944C213.977 190.724 212.069 193.496 208.793 194.9L214.445 203ZM208.073 186.944C208.073 184.172 206.273 182.552 202.709 182.552H197.957V191.336H202.709C206.273 191.336 208.073 189.68 208.073 186.944Z" fill="white"/>
<defs>
<linearGradient id="paint0_linear_1501_9251" x1="105" y1="89" x2="231" y2="283" gradientUnits="userSpaceOnUse">
<stop stop-color="#A8A5FF"/>
<stop offset="0.5" stop-color="#6B70ED"/>
<stop offset="1" stop-color="#423496"/>
</linearGradient>
<linearGradient id="paint1_linear_1501_9251" x1="109.821" y1="346.415" x2="197.031" y2="-150.465" gradientUnits="userSpaceOnUse">
<stop stop-color="#AFAFFF"/>
<stop offset="0.34375" stop-color="#FF8FB8"/>
<stop offset="0.723958" stop-color="#FFBB9B"/>
</linearGradient>
</defs>
</svg>
