<svg width="291" height="291" viewBox="0 0 291 291" fill="none" xmlns="http://www.w3.org/2000/svg">
<circle cx="145.5" cy="145.5" r="143" fill="url(#paint0_linear_1501_9252)" stroke="url(#paint1_linear_1501_9252)" stroke-width="5"/>
<path d="M75.2217 137V116.552H67.1577V111.8H89.1177V116.552H81.0537V137H75.2217ZM109.536 111.8H115.368V137H109.536V126.668H98.0876V137H92.2556V111.8H98.0876V121.736H109.536V111.8ZM127.126 132.32H140.842V137H121.33V111.8H140.374V116.48H127.126V121.952H138.826V126.488H127.126V132.32ZM174.721 116.48H161.509V123.14H173.173V127.82H161.509V137H155.677V111.8H174.721V116.48ZM184.466 132.32H198.182V137H178.67V111.8H197.714V116.48H184.466V121.952H196.166V126.488H184.466V132.32ZM208.618 132.32H222.334V137H202.822V111.8H221.866V116.48H208.618V121.952H220.318V126.488H208.618V132.32ZM46.2023 181.432C38.3903 181.432 32.5583 175.996 32.5583 168.4C32.5583 160.804 38.3903 155.368 46.2383 155.368C50.5943 155.368 54.2303 156.952 56.6063 159.832L52.8623 163.288C51.1703 161.344 49.0463 160.336 46.5263 160.336C41.8103 160.336 38.4623 163.648 38.4623 168.4C38.4623 173.152 41.8103 176.464 46.5263 176.464C49.0463 176.464 51.1703 175.456 52.8623 173.476L56.6063 176.932C54.2303 179.848 50.5943 181.432 46.2023 181.432ZM72.2213 181.432C64.2653 181.432 58.4333 175.888 58.4333 168.4C58.4333 160.912 64.2653 155.368 72.2213 155.368C80.1413 155.368 86.0093 160.876 86.0093 168.4C86.0093 175.924 80.1413 181.432 72.2213 181.432ZM72.2213 176.464C76.7213 176.464 80.1053 173.188 80.1053 168.4C80.1053 163.612 76.7213 160.336 72.2213 160.336C67.7213 160.336 64.3373 163.612 64.3373 168.4C64.3373 173.188 67.7213 176.464 72.2213 176.464ZM90.3923 181V155.8H96.2243V176.248H108.86V181H90.3923ZM112.119 181V155.8H117.951V176.248H130.587V181H112.119ZM139.641 176.32H153.357V181H133.845V155.8H152.889V160.48H139.641V165.952H151.341V170.488H139.641V176.32ZM169.987 181.432C162.175 181.432 156.343 175.996 156.343 168.4C156.343 160.804 162.175 155.368 170.023 155.368C174.379 155.368 178.015 156.952 180.391 159.832L176.647 163.288C174.955 161.344 172.831 160.336 170.311 160.336C165.595 160.336 162.247 163.648 162.247 168.4C162.247 173.152 165.595 176.464 170.311 176.464C172.831 176.464 174.955 175.456 176.647 173.476L180.391 176.932C178.015 179.848 174.379 181.432 169.987 181.432ZM189.304 181V160.552H181.24V155.8H203.2V160.552H195.136V181H189.304ZM218.19 181.432C210.234 181.432 204.402 175.888 204.402 168.4C204.402 160.912 210.234 155.368 218.19 155.368C226.11 155.368 231.978 160.876 231.978 168.4C231.978 175.924 226.11 181.432 218.19 181.432ZM218.19 176.464C222.69 176.464 226.074 173.188 226.074 168.4C226.074 163.612 222.69 160.336 218.19 160.336C213.69 160.336 210.306 163.612 210.306 168.4C210.306 173.188 213.69 176.464 218.19 176.464ZM258.681 181H252.417L247.557 173.98H247.269H242.193V181H236.361V155.8H247.269C254.001 155.8 258.213 159.292 258.213 164.944C258.213 168.724 256.305 171.496 253.029 172.9L258.681 181ZM252.309 164.944C252.309 162.172 250.509 160.552 246.945 160.552H242.193V169.336H246.945C250.509 169.336 252.309 167.68 252.309 164.944Z" fill="white"/>
<defs>
<linearGradient id="paint0_linear_1501_9252" x1="105" y1="89" x2="231" y2="283" gradientUnits="userSpaceOnUse">
<stop stop-color="#A8A5FF"/>
<stop offset="0.5" stop-color="#6B70ED"/>
<stop offset="1" stop-color="#423496"/>
</linearGradient>
<linearGradient id="paint1_linear_1501_9252" x1="109.821" y1="346.415" x2="197.031" y2="-150.465" gradientUnits="userSpaceOnUse">
<stop stop-color="#AFAFFF"/>
<stop offset="0.34375" stop-color="#FF8FB8"/>
<stop offset="0.723958" stop-color="#FFBB9B"/>
</linearGradient>
</defs>
</svg>
