<svg width="291" height="291" viewBox="0 0 291 291" fill="none" xmlns="http://www.w3.org/2000/svg">
<circle cx="145.5" cy="145.5" r="143" fill="url(#paint0_linear_1501_9253)" stroke="url(#paint1_linear_1501_9253)" stroke-width="5"/>
<path d="M66.4248 137V116.552H58.3608V111.8H80.3208V116.552H72.2568V137H66.4248ZM100.739 111.8H106.571V137H100.739V126.668H89.2907V137H83.4587V111.8H89.2907V121.736H100.739V111.8ZM118.329 132.32H132.045V137H112.533V111.8H131.577V116.48H118.329V121.952H130.029V126.488H118.329V132.32ZM169.201 137H162.937L158.077 129.98H157.789H152.713V137H146.881V111.8H157.789C164.521 111.8 168.733 115.292 168.733 120.944C168.733 124.724 166.825 127.496 163.549 128.9L169.201 137ZM162.829 120.944C162.829 118.172 161.029 116.552 157.465 116.552H152.713V125.336H157.465C161.029 125.336 162.829 123.68 162.829 120.944ZM173.353 137V111.8H179.185V137H173.353ZM193.446 137.432C189.45 137.432 185.418 136.244 183.186 134.516L185.166 130.124C187.29 131.672 190.458 132.752 193.482 132.752C196.938 132.752 198.342 131.6 198.342 130.052C198.342 125.336 183.69 128.576 183.69 119.216C183.69 114.932 187.146 111.368 194.31 111.368C197.478 111.368 200.718 112.124 203.058 113.6L201.258 118.028C198.918 116.696 196.506 116.048 194.274 116.048C190.818 116.048 189.486 117.344 189.486 118.928C189.486 123.572 204.138 120.368 204.138 129.62C204.138 133.832 200.646 137.432 193.446 137.432ZM225.367 137L217.303 127.1L213.919 130.628V137H208.123V111.8H213.919V123.572L225.079 111.8H231.559L221.119 123.032L232.171 137H225.367ZM75.1746 176.32H88.8906V181H69.3786V155.8H88.4226V160.48H75.1746V165.952H86.8746V170.488H75.1746V176.32ZM111.611 155.8H117.407L106.499 181H100.739L89.8674 155.8H96.1674L103.835 173.8L111.611 155.8ZM137.496 181L135.264 175.6H123.564L121.332 181H115.356L126.588 155.8H132.348L143.616 181H137.496ZM125.436 171.172H133.428L129.432 161.524L125.436 171.172ZM146.23 181V155.8H157.678C165.922 155.8 171.574 160.768 171.574 168.4C171.574 176.032 165.922 181 157.678 181H146.23ZM152.062 176.212H157.39C162.394 176.212 165.67 173.224 165.67 168.4C165.67 163.576 162.394 160.588 157.39 160.588H152.062V176.212ZM181.768 176.32H195.484V181H175.972V155.8H195.016V160.48H181.768V165.952H193.468V170.488H181.768V176.32ZM222.445 181H216.181L211.321 173.98H211.033H205.957V181H200.125V155.8H211.033C217.765 155.8 221.977 159.292 221.977 164.944C221.977 168.724 220.069 171.496 216.793 172.9L222.445 181ZM216.073 164.944C216.073 162.172 214.273 160.552 210.709 160.552H205.957V169.336H210.709C214.273 169.336 216.073 167.68 216.073 164.944Z" fill="white"/>
<defs>
<linearGradient id="paint0_linear_1501_9253" x1="105" y1="89" x2="231" y2="283" gradientUnits="userSpaceOnUse">
<stop stop-color="#A8A5FF"/>
<stop offset="0.5" stop-color="#6B70ED"/>
<stop offset="1" stop-color="#423496"/>
</linearGradient>
<linearGradient id="paint1_linear_1501_9253" x1="109.821" y1="346.415" x2="197.031" y2="-150.465" gradientUnits="userSpaceOnUse">
<stop stop-color="#AFAFFF"/>
<stop offset="0.34375" stop-color="#FF8FB8"/>
<stop offset="0.723958" stop-color="#FFBB9B"/>
</linearGradient>
</defs>
</svg>
