<svg width="291" height="291" viewBox="0 0 291 291" fill="none" xmlns="http://www.w3.org/2000/svg">
<circle cx="145.5" cy="145.5" r="143" fill="url(#paint0_linear_1501_9250)" stroke="url(#paint1_linear_1501_9250)" stroke-width="5"/>
<path d="M116.468 115V94.552H108.404V89.8H130.364V94.552H122.3V115H116.468ZM150.782 89.8H156.614V115H150.782V89.8ZM139.334 115H133.502V89.8H139.334V115ZM151.214 104.668H138.902V99.736H151.214V104.668ZM167.94 99.952H180.072V104.488H167.94V99.952ZM168.372 110.32H182.088V115H162.576V89.8H181.62V94.48H168.372V110.32ZM95.8332 159.432C93.8892 159.432 92.0772 159.12 90.3972 158.496C88.7412 157.848 87.3012 156.936 86.0772 155.76C84.8532 154.584 83.8932 153.204 83.1972 151.62C82.5252 150.036 82.1892 148.296 82.1892 146.4C82.1892 144.504 82.5252 142.764 83.1972 141.18C83.8932 139.596 84.8532 138.216 86.0772 137.04C87.3252 135.864 88.7772 134.964 90.4332 134.34C92.0892 133.692 93.9012 133.368 95.8692 133.368C98.0532 133.368 100.021 133.752 101.773 134.52C103.549 135.264 105.037 136.368 106.237 137.832L102.493 141.288C101.629 140.304 100.669 139.572 99.6132 139.092C98.5572 138.588 97.4052 138.336 96.1572 138.336C94.9812 138.336 93.9012 138.528 92.9172 138.912C91.9332 139.296 91.0812 139.848 90.3612 140.568C89.6412 141.288 89.0772 142.14 88.6692 143.124C88.2852 144.108 88.0932 145.2 88.0932 146.4C88.0932 147.6 88.2852 148.692 88.6692 149.676C89.0772 150.66 89.6412 151.512 90.3612 152.232C91.0812 152.952 91.9332 153.504 92.9172 153.888C93.9012 154.272 94.9812 154.464 96.1572 154.464C97.4052 154.464 98.5572 154.224 99.6132 153.744C100.669 153.24 101.629 152.484 102.493 151.476L106.237 154.932C105.037 156.396 103.549 157.512 101.773 158.28C100.021 159.048 98.0412 159.432 95.8332 159.432ZM106.406 159L117.638 133.8H123.398L134.666 159H128.546L119.33 136.752H121.634L112.382 159H106.406ZM112.022 153.6L113.57 149.172H126.53L128.114 153.6H112.022ZM137.281 159V133.8H148.189C150.445 133.8 152.389 134.172 154.021 134.916C155.653 135.636 156.913 136.68 157.801 138.048C158.689 139.416 159.133 141.048 159.133 142.944C159.133 144.816 158.689 146.436 157.801 147.804C156.913 149.148 155.653 150.18 154.021 150.9C152.389 151.62 150.445 151.98 148.189 151.98H140.521L143.113 149.424V159H137.281ZM153.301 159L147.001 149.856H153.229L159.601 159H153.301ZM143.113 150.072L140.521 147.336H147.865C149.665 147.336 151.009 146.952 151.897 146.184C152.785 145.392 153.229 144.312 153.229 142.944C153.229 141.552 152.785 140.472 151.897 139.704C151.009 138.936 149.665 138.552 147.865 138.552H140.521L143.113 135.78V150.072ZM163.754 159V133.8H174.662C176.918 133.8 178.862 134.172 180.494 134.916C182.126 135.636 183.386 136.68 184.274 138.048C185.162 139.416 185.606 141.048 185.606 142.944C185.606 144.816 185.162 146.436 184.274 147.804C183.386 149.148 182.126 150.18 180.494 150.9C178.862 151.62 176.918 151.98 174.662 151.98H166.994L169.586 149.424V159H163.754ZM179.774 159L173.474 149.856H179.702L186.074 159H179.774ZM169.586 150.072L166.994 147.336H174.338C176.138 147.336 177.482 146.952 178.37 146.184C179.258 145.392 179.702 144.312 179.702 142.944C179.702 141.552 179.258 140.472 178.37 139.704C177.482 138.936 176.138 138.552 174.338 138.552H166.994L169.586 135.78V150.072ZM196.139 159V148.704L197.471 152.232L186.383 133.8H192.575L201.071 147.948H197.507L206.039 133.8H211.763L200.675 152.232L201.971 148.704V159H196.139ZM75.8799 203V182.552H67.8159V177.8H89.7759V182.552H81.7119V203H75.8799ZM92.9138 203V177.8H103.822C106.078 177.8 108.022 178.172 109.654 178.916C111.286 179.636 112.546 180.68 113.434 182.048C114.322 183.416 114.766 185.048 114.766 186.944C114.766 188.816 114.322 190.436 113.434 191.804C112.546 193.148 111.286 194.18 109.654 194.9C108.022 195.62 106.078 195.98 103.822 195.98H96.1538L98.7458 193.424V203H92.9138ZM108.934 203L102.634 193.856H108.862L115.234 203H108.934ZM98.7458 194.072L96.1538 191.336H103.498C105.298 191.336 106.642 190.952 107.53 190.184C108.418 189.392 108.862 188.312 108.862 186.944C108.862 185.552 108.418 184.472 107.53 183.704C106.642 182.936 105.298 182.552 103.498 182.552H96.1538L98.7458 179.78V194.072ZM116.074 203L127.306 177.8H133.066L144.334 203H138.214L128.998 180.752H131.302L122.05 203H116.074ZM121.69 197.6L123.238 193.172H136.198L137.782 197.6H121.69ZM146.949 203V177.8H158.397C161.133 177.8 163.545 178.328 165.633 179.384C167.721 180.416 169.353 181.868 170.529 183.74C171.705 185.612 172.293 187.832 172.293 190.4C172.293 192.944 171.705 195.164 170.529 197.06C169.353 198.932 167.721 200.396 165.633 201.452C163.545 202.484 161.133 203 158.397 203H146.949ZM152.781 198.212H158.109C159.789 198.212 161.241 197.9 162.465 197.276C163.713 196.628 164.673 195.716 165.345 194.54C166.041 193.364 166.389 191.984 166.389 190.4C166.389 188.792 166.041 187.412 165.345 186.26C164.673 185.084 163.713 184.184 162.465 183.56C161.241 182.912 159.789 182.588 158.109 182.588H152.781V198.212ZM182.055 187.952H194.187V192.488H182.055V187.952ZM182.487 198.32H196.203V203H176.691V177.8H195.735V182.48H182.487V198.32ZM200.843 203V177.8H211.751C214.007 177.8 215.951 178.172 217.583 178.916C219.215 179.636 220.475 180.68 221.363 182.048C222.251 183.416 222.695 185.048 222.695 186.944C222.695 188.816 222.251 190.436 221.363 191.804C220.475 193.148 219.215 194.18 217.583 194.9C215.951 195.62 214.007 195.98 211.751 195.98H204.083L206.675 193.424V203H200.843ZM216.863 203L210.563 193.856H216.791L223.163 203H216.863ZM206.675 194.072L204.083 191.336H211.427C213.227 191.336 214.571 190.952 215.459 190.184C216.347 189.392 216.791 188.312 216.791 186.944C216.791 185.552 216.347 184.472 215.459 183.704C214.571 182.936 213.227 182.552 211.427 182.552H204.083L206.675 179.78V194.072Z" fill="white"/>
<defs>
<linearGradient id="paint0_linear_1501_9250" x1="105" y1="89" x2="231" y2="283" gradientUnits="userSpaceOnUse">
<stop stop-color="#A8A5FF"/>
<stop offset="0.5" stop-color="#6B70ED"/>
<stop offset="1" stop-color="#423496"/>
</linearGradient>
<linearGradient id="paint1_linear_1501_9250" x1="109.821" y1="346.415" x2="197.031" y2="-150.465" gradientUnits="userSpaceOnUse">
<stop stop-color="#AFAFFF"/>
<stop offset="0.34375" stop-color="#FF8FB8"/>
<stop offset="0.723958" stop-color="#FFBB9B"/>
</linearGradient>
</defs>
</svg>
