<svg width="22" height="22" viewBox="0 0 22 22" fill="none" xmlns="http://www.w3.org/2000/svg">
<path fill-rule="evenodd" clip-rule="evenodd" d="M11.0008 2.29846C11.3874 2.29846 11.7008 2.61186 11.7008 2.99846V4.59853C11.7008 4.98513 11.3874 5.29853 11.0008 5.29853C10.6142 5.29853 10.3008 4.98513 10.3008 4.59853V2.99846C10.3008 2.61186 10.6142 2.29846 11.0008 2.29846ZM11.0008 16.6969C11.3874 16.6969 11.7008 17.0103 11.7008 17.3969V18.997C11.7008 19.3836 11.3874 19.697 11.0008 19.697C10.6142 19.697 10.3008 19.3836 10.3008 18.997V17.3969C10.3008 17.0103 10.6142 16.6969 11.0008 16.6969ZM5.83951 4.85114C5.56614 4.57778 5.12292 4.57778 4.84956 4.85114C4.57619 5.12451 4.57619 5.56773 4.84956 5.84109L5.97761 6.96914C6.25097 7.24251 6.69419 7.24251 6.96756 6.96914C7.24092 6.69578 7.24092 6.25256 6.96756 5.97919L5.83951 4.85114ZM15.0332 15.0308C15.3065 14.7575 15.7497 14.7575 16.0231 15.0308L17.1511 16.1589C17.4245 16.4322 17.4245 16.8755 17.1511 17.1488C16.8778 17.4222 16.4346 17.4222 16.1612 17.1488L15.0332 16.0208C14.7598 15.7474 14.7598 15.3042 15.0332 15.0308ZM3.00078 10.2985C2.61418 10.2985 2.30078 10.6119 2.30078 10.9985C2.30078 11.3851 2.61418 11.6985 3.00078 11.6985H4.60085C4.98745 11.6985 5.30085 11.3851 5.30085 10.9985C5.30085 10.6119 4.98745 10.2985 4.60085 10.2985H3.00078ZM16.7012 10.9985C16.7012 10.6119 17.0146 10.2985 17.4012 10.2985H19.0012C19.3878 10.2985 19.7012 10.6119 19.7012 10.9985C19.7012 11.3851 19.3878 11.6985 19.0012 11.6985H17.4012C17.0146 11.6985 16.7012 11.3851 16.7012 10.9985ZM6.96756 16.0208C7.24092 15.7474 7.24092 15.3042 6.96756 15.0308C6.69419 14.7575 6.25097 14.7575 5.97761 15.0308L4.84956 16.1589C4.57619 16.4322 4.57619 16.8755 4.84956 17.1488C5.12292 17.4222 5.56614 17.4222 5.83951 17.1488L6.96756 16.0208ZM17.1511 4.85114C17.4245 5.12451 17.4245 5.56773 17.1511 5.84109L16.0231 6.96914C15.7497 7.24251 15.3065 7.24251 15.0332 6.96914C14.7598 6.69578 14.7598 6.25256 15.0331 5.97919L16.1612 4.85114C16.4346 4.57778 16.8778 4.57778 17.1511 4.85114ZM15.5 10.9985C15.5 13.4837 13.4853 15.4985 11 15.4985C8.51472 15.4985 6.5 13.4837 6.5 10.9985C6.5 8.51318 8.51472 6.49846 11 6.49846C13.4853 6.49846 15.5 8.51318 15.5 10.9985Z" fill="url(#paint0_linear_675_35)"/>
<defs>
<linearGradient id="paint0_linear_675_35" x1="6.02154" y1="7.96482" x2="13.9811" y2="13.5247" gradientUnits="userSpaceOnUse">
<stop offset="0.185725" stop-color="#FFD3A5"/>
<stop offset="1" stop-color="#FFC0C0"/>
</linearGradient>
</defs>
</svg>
